<svg width="147" height="15" viewBox="0 0 147 15" fill="none" xmlns="http://www.w3.org/2000/svg">
<path d="M4.88496 1.8877C4.33353 1.8877 3.83679 1.9834 3.39473 2.1748C2.95723 2.36165 2.58353 2.63509 2.27364 2.99512C1.9683 3.35059 1.7336 3.78125 1.56953 4.28711C1.40547 4.79297 1.32344 5.36263 1.32344 5.99609C1.32344 6.83464 1.45332 7.5638 1.71309 8.18359C1.97741 8.79883 2.36934 9.27507 2.88887 9.6123C3.41296 9.94954 4.06693 10.1182 4.85078 10.1182C5.2974 10.1182 5.71667 10.0817 6.1086 10.0088C6.50508 9.93132 6.89017 9.83561 7.26387 9.72168V10.7334C6.89929 10.8701 6.51647 10.9704 6.11543 11.0342C5.71439 11.1025 5.23815 11.1367 4.68672 11.1367C3.67045 11.1367 2.82051 10.9271 2.13692 10.5078C1.45788 10.084 0.947464 9.48698 0.605667 8.7168C0.268428 7.94661 0.0998077 7.03743 0.0998077 5.98926C0.0998077 5.23275 0.204625 4.54232 0.414261 3.91797C0.628454 3.28906 0.938349 2.74674 1.34395 2.29102C1.7541 1.83529 2.25541 1.48438 2.84785 1.23828C3.44486 0.98763 4.12845 0.862305 4.89864 0.862305C5.4045 0.862305 5.89213 0.912435 6.36153 1.0127C6.83093 1.11296 7.25476 1.25651 7.63301 1.44336L7.16817 2.42773C6.84916 2.2819 6.49825 2.15658 6.11543 2.05176C5.73718 1.94238 5.32702 1.8877 4.88496 1.8877ZM14.9791 11H13.8238V4.45801H11.5475C11.4563 5.63835 11.3401 6.65007 11.1988 7.49316C11.0621 8.33171 10.8889 9.01758 10.6793 9.55078C10.4742 10.0794 10.2236 10.4691 9.92735 10.7197C9.63568 10.9658 9.28705 11.0889 8.88145 11.0889C8.7584 11.0889 8.64219 11.082 8.53281 11.0684C8.42344 11.0547 8.33001 11.0319 8.25254 11V10.1387C8.31179 10.1569 8.37331 10.1706 8.43711 10.1797C8.50547 10.1888 8.57611 10.1934 8.64902 10.1934C8.8541 10.1934 9.04095 10.109 9.20957 9.94043C9.38275 9.76725 9.5377 9.50749 9.67442 9.16113C9.81569 8.81478 9.94102 8.37728 10.0504 7.84863C10.1598 7.31543 10.2555 6.6888 10.3375 5.96875C10.4241 5.24414 10.4993 4.42383 10.5631 3.50781H14.9791V11ZM20.3564 3.37109C20.9945 3.37109 21.5413 3.51237 21.9971 3.79492C22.4528 4.07747 22.8014 4.47396 23.043 4.98438C23.2845 5.49023 23.4053 6.08268 23.4053 6.76172V7.46582H18.2305C18.2441 8.34538 18.4629 9.0153 18.8867 9.47559C19.3106 9.93587 19.9076 10.166 20.6777 10.166C21.1517 10.166 21.571 10.1227 21.9356 10.0361C22.3001 9.94954 22.6784 9.82194 23.0703 9.65332V10.6514C22.6921 10.82 22.3161 10.943 21.9424 11.0205C21.5732 11.098 21.1357 11.1367 20.6299 11.1367C19.9098 11.1367 19.2809 10.9909 18.7432 10.6992C18.21 10.403 17.7953 9.97005 17.499 9.40039C17.2028 8.83073 17.0547 8.13346 17.0547 7.30859C17.0547 6.50195 17.1891 5.80469 17.458 5.2168C17.7314 4.62435 18.1143 4.16862 18.6064 3.84961C19.1032 3.5306 19.6865 3.37109 20.3564 3.37109ZM20.3428 4.30078C19.7367 4.30078 19.2536 4.49902 18.8936 4.89551C18.5335 5.29199 18.3193 5.8457 18.251 6.55664H22.2158C22.2113 6.11003 22.1406 5.7181 22.0039 5.38086C21.8717 5.03906 21.6689 4.77474 21.3955 4.58789C21.1221 4.39648 20.7712 4.30078 20.3428 4.30078ZM30.9223 3.50781V10.0361H31.9955V13.5908H30.8949V11H25.5902V13.5908H24.5033V10.0361H25.0912C25.5196 9.44368 25.8751 8.79427 26.1576 8.08789C26.4402 7.38151 26.6544 6.64095 26.8002 5.86621C26.946 5.08691 27.0235 4.30078 27.0326 3.50781H30.9223ZM29.8217 4.41016H28.0443C28.0033 5.07552 27.9053 5.75228 27.7504 6.44043C27.6 7.12858 27.3995 7.78483 27.1488 8.40918C26.8982 9.02897 26.6065 9.57129 26.2738 10.0361H29.8217V4.41016ZM32.4031 3.50781H33.6199L35.2742 7.85547C35.3699 8.11068 35.4588 8.35677 35.5408 8.59375C35.6229 8.82617 35.6958 9.04948 35.7596 9.26367C35.8234 9.47786 35.8735 9.68522 35.91 9.88574H35.9578C36.0216 9.65788 36.1128 9.35938 36.2313 8.99023C36.3497 8.61654 36.4773 8.236 36.6141 7.84863L38.1795 3.50781H39.4031L36.1424 12.1006C35.9692 12.5609 35.7664 12.9619 35.534 13.3037C35.3061 13.6455 35.0281 13.9076 34.7 14.0898C34.3719 14.2767 33.9754 14.3701 33.5106 14.3701C33.2964 14.3701 33.1072 14.3564 32.9432 14.3291C32.7791 14.3063 32.6378 14.279 32.5193 14.2471V13.3379C32.6196 13.3607 32.7404 13.3812 32.8816 13.3994C33.0275 13.4176 33.1779 13.4268 33.3328 13.4268C33.6154 13.4268 33.8592 13.3721 34.0643 13.2627C34.2739 13.1579 34.4539 13.0029 34.6043 12.7979C34.7547 12.5928 34.8846 12.349 34.9939 12.0664L35.4041 11.0137L32.4031 3.50781ZM50.3313 7.24023C50.3313 8.05599 50.1991 8.75553 49.9348 9.33887C49.675 9.9222 49.3013 10.3688 48.8137 10.6787C48.326 10.984 47.7427 11.1367 47.0637 11.1367C46.4302 11.1367 45.8765 11 45.4025 10.7266C44.9331 10.4531 44.5617 10.0544 44.2883 9.53027C44.0194 9.00618 43.8645 8.36816 43.8234 7.61621H41.8342V11H40.6994V3.50781H41.8342V6.65234H43.8371C43.9009 5.95964 44.0695 5.36947 44.343 4.88184C44.6164 4.39421 44.9855 4.02051 45.4504 3.76074C45.9152 3.50098 46.4621 3.37109 47.091 3.37109C47.7473 3.37109 48.3169 3.52604 48.8 3.83594C49.2876 4.14128 49.6636 4.58333 49.9279 5.16211C50.1968 5.73633 50.3313 6.42904 50.3313 7.24023ZM44.9855 7.24023C44.9855 7.86914 45.0562 8.40462 45.1975 8.84668C45.3433 9.28418 45.5689 9.61914 45.8742 9.85156C46.1841 10.0794 46.5852 10.1934 47.0773 10.1934C47.565 10.1934 47.9615 10.0794 48.2668 9.85156C48.5767 9.6237 48.8023 9.29102 48.9436 8.85352C49.0894 8.41146 49.1623 7.8737 49.1623 7.24023C49.1623 6.61589 49.0894 6.08724 48.9436 5.6543C48.7977 5.22135 48.5721 4.89323 48.2668 4.66992C47.9615 4.44206 47.565 4.32812 47.0773 4.32812C46.5897 4.32812 46.191 4.44206 45.8811 4.66992C45.5757 4.89323 45.3501 5.22135 45.2043 5.6543C45.0585 6.08724 44.9855 6.61589 44.9855 7.24023ZM62.4488 3.50781V10.0498H63.5221V13.5771H62.3805V11H52.4068V3.50781H53.5416V10.0361H56.857V3.50781H57.9986V10.0361H61.3209V3.50781H62.4488ZM67.874 3.38477C68.7673 3.38477 69.4303 3.58529 69.8633 3.98633C70.2962 4.38737 70.5127 5.02767 70.5127 5.90723V11H69.6855L69.4668 9.89258H69.4121C69.2025 10.166 68.9837 10.3962 68.7559 10.583C68.528 10.7653 68.2637 10.9043 67.9629 11C67.6667 11.0911 67.3021 11.1367 66.8691 11.1367C66.4134 11.1367 66.0078 11.057 65.6523 10.8975C65.3014 10.738 65.0234 10.4964 64.8184 10.1729C64.6178 9.84928 64.5176 9.43913 64.5176 8.94238C64.5176 8.19499 64.8138 7.62077 65.4062 7.21973C65.9987 6.81868 66.901 6.59993 68.1133 6.56348L69.4053 6.50879V6.05078C69.4053 5.40365 69.2663 4.9502 68.9883 4.69043C68.7103 4.43066 68.3184 4.30078 67.8125 4.30078C67.4206 4.30078 67.0469 4.35775 66.6914 4.47168C66.3359 4.58561 65.9987 4.72005 65.6797 4.875L65.3311 4.01367C65.6683 3.84049 66.0557 3.69238 66.4932 3.56934C66.9307 3.44629 67.391 3.38477 67.874 3.38477ZM69.3916 7.30859L68.25 7.35645C67.3158 7.3929 66.6572 7.54557 66.2744 7.81445C65.8916 8.08333 65.7002 8.46387 65.7002 8.95605C65.7002 9.38444 65.8301 9.70117 66.0898 9.90625C66.3496 10.1113 66.6937 10.2139 67.1221 10.2139C67.7874 10.2139 68.332 10.0293 68.7559 9.66016C69.1797 9.29102 69.3916 8.7373 69.3916 7.99902V7.30859ZM73.3129 11H71.9867L74.1469 7.8418C73.8324 7.77344 73.5408 7.65723 73.2719 7.49316C73.003 7.32454 72.7843 7.0944 72.6156 6.80273C72.4516 6.51107 72.3695 6.14876 72.3695 5.71582C72.3695 4.99577 72.6088 4.44889 73.0873 4.0752C73.5704 3.69694 74.2061 3.50781 74.9945 3.50781H78.31V11H77.1752V7.99219H75.2748L73.3129 11ZM73.4701 5.72266C73.4701 6.16927 73.6296 6.50195 73.9486 6.7207C74.2676 6.9349 74.7234 7.04199 75.3158 7.04199H77.1752V4.45801H75.1176C74.5343 4.45801 74.1127 4.5765 73.8529 4.81348C73.5977 5.0459 73.4701 5.34896 73.4701 5.72266ZM87.5402 11.1367C86.8658 11.1367 86.271 10.9977 85.7561 10.7197C85.2411 10.4417 84.84 10.0179 84.5529 9.44824C84.2658 8.87858 84.1223 8.16081 84.1223 7.29492C84.1223 6.38802 84.2727 5.64746 84.5734 5.07324C84.8788 4.49447 85.298 4.06608 85.8313 3.78809C86.3645 3.51009 86.9706 3.37109 87.6496 3.37109C88.0233 3.37109 88.3833 3.40983 88.7297 3.4873C89.0806 3.56022 89.3677 3.65365 89.591 3.76758L89.2492 4.71777C89.0214 4.62663 88.757 4.5446 88.4563 4.47168C88.16 4.39876 87.882 4.3623 87.6223 4.3623C87.1027 4.3623 86.6698 4.47396 86.3234 4.69727C85.9816 4.92057 85.7242 5.2487 85.551 5.68164C85.3824 6.11458 85.298 6.64779 85.298 7.28125C85.298 7.88737 85.3801 8.40462 85.5441 8.83301C85.7128 9.26139 85.9611 9.58952 86.2893 9.81738C86.6219 10.0407 87.0367 10.1523 87.5334 10.1523C87.9299 10.1523 88.2876 10.1113 88.6066 10.0293C88.9257 9.94271 89.215 9.84245 89.4748 9.72852V10.7402C89.2242 10.8678 88.9439 10.9658 88.634 11.0342C88.3286 11.1025 87.9641 11.1367 87.5402 11.1367ZM96.4586 4.47168H93.9908V11H92.8697V4.47168H90.4361V3.50781H96.4586V4.47168ZM101.562 3.37109C102.497 3.37109 103.242 3.69238 103.798 4.33496C104.354 4.97754 104.632 5.94368 104.632 7.2334C104.632 8.08561 104.504 8.80111 104.249 9.37988C103.994 9.95866 103.634 10.3962 103.169 10.6924C102.709 10.9886 102.164 11.1367 101.535 11.1367C101.139 11.1367 100.79 11.0843 100.489 10.9795C100.188 10.8747 99.931 10.7334 99.7168 10.5557C99.5026 10.3779 99.3249 10.1842 99.1836 9.97461H99.1016C99.1152 10.1523 99.1312 10.3665 99.1494 10.6172C99.1722 10.8678 99.1836 11.0866 99.1836 11.2734V14.3496H98.042V3.50781H98.9785L99.1289 4.61523H99.1836C99.3294 4.38737 99.5072 4.18001 99.7168 3.99316C99.9264 3.80176 100.182 3.65137 100.482 3.54199C100.788 3.42806 101.148 3.37109 101.562 3.37109ZM101.364 4.32812C100.845 4.32812 100.425 4.42839 100.106 4.62891C99.792 4.82943 99.5618 5.13021 99.416 5.53125C99.2702 5.92773 99.1927 6.42676 99.1836 7.02832V7.24707C99.1836 7.88053 99.252 8.41602 99.3887 8.85352C99.5299 9.29102 99.7601 9.6237 100.079 9.85156C100.403 10.0794 100.836 10.1934 101.378 10.1934C101.843 10.1934 102.23 10.068 102.54 9.81738C102.85 9.56673 103.08 9.2181 103.23 8.77148C103.385 8.32031 103.463 7.80306 103.463 7.21973C103.463 6.33561 103.29 5.63379 102.943 5.11426C102.602 4.59017 102.075 4.32812 101.364 4.32812ZM109.517 3.38477C110.41 3.38477 111.073 3.58529 111.506 3.98633C111.939 4.38737 112.156 5.02767 112.156 5.90723V11H111.329L111.11 9.89258H111.055C110.845 10.166 110.627 10.3962 110.399 10.583C110.171 10.7653 109.907 10.9043 109.606 11C109.31 11.0911 108.945 11.1367 108.512 11.1367C108.056 11.1367 107.651 11.057 107.295 10.8975C106.944 10.738 106.666 10.4964 106.461 10.1729C106.261 9.84928 106.161 9.43913 106.161 8.94238C106.161 8.19499 106.457 7.62077 107.049 7.21973C107.642 6.81868 108.544 6.59993 109.756 6.56348L111.048 6.50879V6.05078C111.048 5.40365 110.909 4.9502 110.631 4.69043C110.353 4.43066 109.961 4.30078 109.455 4.30078C109.064 4.30078 108.69 4.35775 108.334 4.47168C107.979 4.58561 107.642 4.72005 107.323 4.875L106.974 4.01367C107.311 3.84049 107.699 3.69238 108.136 3.56934C108.574 3.44629 109.034 3.38477 109.517 3.38477ZM111.035 7.30859L109.893 7.35645C108.959 7.3929 108.3 7.54557 107.917 7.81445C107.535 8.08333 107.343 8.46387 107.343 8.95605C107.343 9.38444 107.473 9.70117 107.733 9.90625C107.993 10.1113 108.337 10.2139 108.765 10.2139C109.43 10.2139 109.975 10.0293 110.399 9.66016C110.823 9.29102 111.035 8.7373 111.035 7.99902V7.30859ZM115.735 3.50781V6.65234H119.912V3.50781H121.047V11H119.912V7.61621H115.735V11H114.594V3.50781H115.735ZM124.633 3.50781V8.21777C124.633 8.30892 124.631 8.42741 124.626 8.57324C124.622 8.71452 124.615 8.86719 124.606 9.03125C124.597 9.19076 124.587 9.3457 124.578 9.49609C124.574 9.64193 124.567 9.7627 124.558 9.8584L128.646 3.50781H130.04V11H128.981V6.40625C128.981 6.26042 128.983 6.07357 128.988 5.8457C128.992 5.61784 128.999 5.39453 129.008 5.17578C129.017 4.95247 129.024 4.7793 129.029 4.65625L124.954 11H123.553V3.50781H124.633ZM139.847 13.5908H138.74V11H132.553V3.50781H133.695V10.0361H137.667V3.50781H138.801V10.0498H139.847V13.5908ZM144.22 3.38477C145.113 3.38477 145.776 3.58529 146.209 3.98633C146.642 4.38737 146.858 5.02767 146.858 5.90723V11H146.031L145.812 9.89258H145.758C145.548 10.166 145.329 10.3962 145.102 10.583C144.874 10.7653 144.609 10.9043 144.309 11C144.012 11.0911 143.648 11.1367 143.215 11.1367C142.759 11.1367 142.354 11.057 141.998 10.8975C141.647 10.738 141.369 10.4964 141.164 10.1729C140.964 9.84928 140.863 9.43913 140.863 8.94238C140.863 8.19499 141.16 7.62077 141.752 7.21973C142.344 6.81868 143.247 6.59993 144.459 6.56348L145.751 6.50879V6.05078C145.751 5.40365 145.612 4.9502 145.334 4.69043C145.056 4.43066 144.664 4.30078 144.158 4.30078C143.766 4.30078 143.393 4.35775 143.037 4.47168C142.682 4.58561 142.344 4.72005 142.025 4.875L141.677 4.01367C142.014 3.84049 142.401 3.69238 142.839 3.56934C143.276 3.44629 143.737 3.38477 144.22 3.38477ZM145.737 7.30859L144.596 7.35645C143.661 7.3929 143.003 7.54557 142.62 7.81445C142.237 8.08333 142.046 8.46387 142.046 8.95605C142.046 9.38444 142.176 9.70117 142.436 9.90625C142.695 10.1113 143.039 10.2139 143.468 10.2139C144.133 10.2139 144.678 10.0293 145.102 9.66016C145.525 9.29102 145.737 8.7373 145.737 7.99902V7.30859Z" fill="#121212"/>
</svg>
